/* XPM */
static char * wiimote_xpm[] = {
"14 20 46 1",
" 	c None",
".	c #000000",
"+	c #D7D7D7",
"@	c #FFFFFF",
"#	c #252525",
"$	c #373737",
"%	c #F9F9F9",
"&	c #9D9D9D",
"*	c #BCBCBC",
"=	c #E2E2E0",
"-	c #9B9B9D",
";	c #FDFFFF",
">	c #F9FBFE",
",	c #F7FAFE",
"'	c #9A9C9C",
")	c #F8FAFF",
"!	c #F3F6FD",
"~	c #909398",
"{	c #EBF2FF",
"]	c #E8EFFA",
"^	c #E8EFFC",
"/	c #3C5890",
"(	c #F7FDFF",
"_	c #DCE6FA",
":	c #DDE5F9",
"<	c #B8C5E1",
"[	c #F5FBFF",
"}	c #D5DFF8",
"|	c #D5E1F8",
"1	c #B1C0DF",
"2	c #D4E1F8",
"3	c #EAF2FF",
"4	c #C9D8F6",
"5	c #A7B9DE",
"6	c #191A1C",
"7	c #C7D6F5",
"8	c #C2D2F5",
"9	c #A4B6DE",
"0	c #C5D6F7",
"a	c #C9DAFE",
"b	c #B8CAF3",
"c	c #B8CCF3",
"d	c #E1ECFF",
"e	c #C9DBFF",
"f	c #C8DAFF",
"g	c #E0ECFF",
"   ...        ",
"  .+@.        ",
"  .@@.        ",
"  .@@.        ",
"  .@@.        ",
"  .@@..       ",
"  .@@.#...    ",
"  .@@.@@.@@.. ",
"..$@@.@@.@@.@.",
".%&@@*@@*@=@@.",
".@-;>,>>,,,,@.",
".@')!!!!!!!!@.",
".@~{]^//]^]]@.",
".(_:::</::::(.",
".[}|||1/|||2[.",
"..34445/4443..",
" .67889/8806. ",
"  .abcbcbca.  ",
"  .deeeeefg.  ",
"   ........   "};
